HIERARCHY
ROOT hip
{
  OFFSET 0 0 0
  CHANNELS 6 Xposition Yposition Zposition Zrotation Yrotation Xrotation
  JOINT abdomen
  {
    OFFSET 0 20.6881 -0.73152
    CHANNELS 3 Zrotation Xrotation Yrotation
    JOINT chest
    {
      OFFSET 0 11.7043 -0.48768
      CHANNELS 3 Zrotation Xrotation Yrotation
      JOINT neck
      {
        OFFSET 0 22.1894 -2.19456
        CHANNELS 3 Zrotation Xrotation Yrotation
        JOINT head
        {
          OFFSET -0.24384 7.07133 1.2192
          CHANNELS 3 Zrotation Xrotation Yrotation
          JOINT leftEye
          {
            OFFSET 4.14528 8.04674 8.04672
            CHANNELS 3 Zrotation Xrotation Yrotation
            End Site
            {
              OFFSET 1 0 0
            }
          }
          JOINT rightEye
          {
            OFFSET -3.6576 8.04674 8.04672
            CHANNELS 3 Zrotation Xrotation Yrotation
            End Site
            {
              OFFSET 1 0 0
            }
          }
        }
      }
      JOINT rCollar
      {
        OFFSET -2.68224 19.2634 -4.8768
        CHANNELS 3 Zrotation Xrotation Yrotation
        JOINT rShldr
        {
          OFFSET -8.77824 -1.95073 1.46304
          CHANNELS 3 Zrotation Xrotation Yrotation
          JOINT rForeArm
          {
            OFFSET -28.1742 -1.7115 0.48768
            CHANNELS 3 Zrotation Xrotation Yrotation
            JOINT rHand
            {
              OFFSET -22.5879 0.773209 7.07136
              CHANNELS 3 Zrotation Xrotation Yrotation
              JOINT rThumb1
              {
                OFFSET -1.2192 -0.487915 3.41376
                CHANNELS 3 Zrotation Xrotation Yrotation
                JOINT rThumb2
                {
                  OFFSET -3.37035 -0.52449 3.41376
                  CHANNELS 3 Zrotation Xrotation Yrotation
                  End Site
                  {
                    OFFSET -1.78271 -1.18214 1.43049
                  }
                }
              }
              JOINT rIndex1
              {
                OFFSET -7.75947 0.938293 5.60832
                CHANNELS 3 Zrotation Xrotation Yrotation
                JOINT rIndex2
                {
                  OFFSET -2.54057 -0.884171 1.56538
                  CHANNELS 3 Zrotation Xrotation Yrotation
                  End Site
                  {
                    OFFSET -1.62519 -0.234802 1.16502
                  }
                }
              }
              JOINT rMid1
              {
                OFFSET -8.24714 1.18213 3.41376
                CHANNELS 3 Zrotation Xrotation Yrotation
                JOINT rMid2
                {
                  OFFSET -3.10165 -0.590103 1.0647
                  CHANNELS 3 Zrotation Xrotation Yrotation
                  End Site
                  {
                    OFFSET -2.48547 -0.328903 0.83742
                  }
                }
              }
              JOINT rRing1
              {
                OFFSET -8.82822 0.546677 1.51678
                CHANNELS 3 Zrotation Xrotation Yrotation
                JOINT rRing2
                {
                  OFFSET -2.60934 -0.819778 -0.0198488
                  CHANNELS 3 Zrotation Xrotation Yrotation
                  End Site
                  {
                    OFFSET -2.33842 -0.294052 0.168128
                  }
                }
              }
              JOINT rPinky1
              {
                OFFSET -8.27202 -0.0477905 -0.4584
                CHANNELS 3 Zrotation Xrotation Yrotation
                JOINT rPinky2
                {
                  OFFSET -1.82734 -0.647385 -0.700984
                  CHANNELS 3 Zrotation Xrotation Yrotation
                  End Site
                  {
                    OFFSET -1.69225 -0.51767 -0.607171
                  }
                }
              }
            }
          }
        }
      }
      JOINT lCollar
      {
        OFFSET 2.68224 19.2634 -4.8768
        CHANNELS 3 Zrotation Xrotation Yrotation
        JOINT lShldr
        {
          OFFSET 8.77824 -1.95073 1.46304
          CHANNELS 3 Zrotation Xrotation Yrotation
          JOINT lForeArm
          {
            OFFSET 28.1742 -1.7115 0.48768
            CHANNELS 3 Zrotation Xrotation Yrotation
            JOINT lHand
            {
              OFFSET 22.5879 0.773209 7.07136
              CHANNELS 3 Zrotation Xrotation Yrotation
              JOINT lThumb1
              {
                OFFSET 1.2192 -0.487915 3.41376
                CHANNELS 3 Zrotation Xrotation Yrotation
                JOINT lThumb2
                {
                  OFFSET 3.37035 -0.52449 3.41376
                  CHANNELS 3 Zrotation Xrotation Yrotation
                  End Site
                  {
                    OFFSET 1.78271 -1.18214 1.43049
                  }
                }
              }
              JOINT lIndex1
              {
                OFFSET 7.75947 0.938293 5.60832
                CHANNELS 3 Zrotation Xrotation Yrotation
                JOINT lIndex2
                {
                  OFFSET 2.54057 -0.884171 1.56538
                  CHANNELS 3 Zrotation Xrotation Yrotation
                  End Site
                  {
                    OFFSET 1.62519 -0.234802 1.16502
                  }
                }
              }
              JOINT lMid1
              {
                OFFSET 8.24714 1.18213 3.41376
                CHANNELS 3 Zrotation Xrotation Yrotation
                JOINT lMid2
                {
                  OFFSET 3.10165 -0.590103 1.0647
                  CHANNELS 3 Zrotation Xrotation Yrotation
                  End Site
                  {
                    OFFSET 2.48547 -0.328903 0.83742
                  }
                }
              }
              JOINT lRing1
              {
                OFFSET 8.82822 0.546677 1.51678
                CHANNELS 3 Zrotation Xrotation Yrotation
                JOINT lRing2
                {
                  OFFSET 2.60934 -0.819778 -0.0198488
                  CHANNELS 3 Zrotation Xrotation Yrotation
                  End Site
                  {
                    OFFSET 2.33842 -0.294052 0.168128
                  }
                }
              }
              JOINT lPinky1
              {
                OFFSET 8.27202 -0.0477905 -0.4584
                CHANNELS 3 Zrotation Xrotation Yrotation
                JOINT lPinky2
                {
                  OFFSET 1.82734 -0.647385 -0.700984
                  CHANNELS 3 Zrotation Xrotation Yrotation
                  End Site
                  {
                    OFFSET 1.69225 -0.51767 -0.607171
                  }
                }
              }
            }
          }
        }
      }
    }
  }
  JOINT rButtock
  {
    OFFSET -8.77824 4.35084 1.2192
    CHANNELS 3 Zrotation Xrotation Yrotation
    JOINT rThigh
    {
      OFFSET 0 -1.70687 -2.19456
      CHANNELS 3 Zrotation Xrotation Yrotation
      JOINT rShin
      {
        OFFSET 0 -36.8199 0.73152
        CHANNELS 3 Zrotation Xrotation Yrotation
        JOINT rFoot
        {
          OFFSET 0.73152 -45.1104 -5.12064
          CHANNELS 3 Zrotation Xrotation Yrotation
          End Site
          {
            OFFSET -1.1221 -3.69964 12.103
          }
        }
      }
    }
  }
  JOINT lButtock
  {
    OFFSET 8.77824 4.35084 1.2192
    CHANNELS 3 Zrotation Xrotation Yrotation
    JOINT lThigh
    {
      OFFSET 0 -1.70687 -2.19456
      CHANNELS 3 Zrotation Xrotation Yrotation
      JOINT lShin
      {
        OFFSET 0 -36.8199 0.73152
        CHANNELS 3 Zrotation Xrotation Yrotation
        JOINT lFoot
        {
          OFFSET -0.73152 -45.1104 -5.12064
          CHANNELS 3 Zrotation Xrotation Yrotation
          End Site
          {
            OFFSET 1.1221 -3.69964 12.103
          }
        }
      }
    }
  }
}
MOTION
Frames:	5
Frame Time:	0.03333
0.0 0.0 0.0 0.0 0.0 0.0 0.0 0.0 0.0 0.0 0.0 0.0 0.0 0.0 0.0 0.0 0.0 0.0 0.0 0.0 0.0 0.0 0.0 0.0 0.0 0.0 0.0 0.0 0.0 0.0 0.0 0.0 0.0 0.0 0.0 0.0 0.0 0.0 0.0 0.0 0.0 0.0 0.0 0.0 0.0 0.0 0.0 0.0 0.0 0.0 0.0 0.0 0.0 0.0 0.0 0.0 0.0 0.0 0.0 0.0 0.0 0.0 0.0 0.0 0.0 0.0 0.0 0.0 0.0 0.0 0.0 0.0 0.0 0.0 0.0 0.0 0.0 0.0 0.0 0.0 0.0 0.0 0.0 0.0 0.0 0.0 0.0 0.0 0.0 0.0 0.0 0.0 0.0 0.0 0.0 0.0 0.0 0.0 0.0 0.0 0.0 0.0 0.0 0.0 0.0 0.0 0.0 0.0 0.0 0.0 0.0 0.0 0.0 0.0 0.0 0.0 0.0 0.0 0.0 0.0 0.0 0.0 0.0 0.0 0.0 0.0 0.0 0.0 0.0 0.0 0.0 0.0
0.2503 62.649699999999996 -0.0097 -0.113222 35.633508 -1.249788 -2.199393 1.830862 88.967662 6.942608 6.352873 -41.384703 3.936449 -0.423574 170.472278 45.819248 27.360271 100.325096 -154.109947 5.933013 25.409929 -17.517628 8.890498 -53.548318 81.735027 -26.581456 -7.982621 -148.286792 44.636291 155.005518 -166.067685 2.785921 -23.619097 -32.428475 60.804485 -63.404988 -170.434319 3.730429 50.120093 -65.591293 56.146113 -128.506966 -177.417515 22.221309 -112.743837 151.633449 -75.80514 -84.199419 -16.734928 25.601123 -131.654868 -0.70551 18.522193 47.530734 -7.27672 22.396748 -88.469176 51.364211 31.284897 -8.964094 104.644384 20.813117 -49.220352 21.687082 -3.05661 -12.30689 81.924617 -29.997437 -162.263294 -14.596833 -29.82433 -10.051422 8.801499 -77.935896 -142.272787 78.283678 72.63301 -4.559567 167.334742 -0.372306 -60.940527 -12.400019 25.638197 -0.027953 38.790386 7.389153 -71.118618 118.41362 87.238068 -22.016045 -178.053945 -0.112944 0.262766 154.532793 -81.645047 -41.538415 75.068087 46.27873 110.383157 21.762037 16.90204 12.519335 133.783113 53.011696 60.579101 -26.171104 -3.982467 0.436916 45.266837 34.115046 112.292536 -10.487648 52.658112 157.122899 -8.422118 0.468908 -90.45821 -71.504384 17.733438 100.264215 -45.041697 -30.068967 -65.198601 -5.713809 50.557218 -143.206436 -9.311611 -1.399702 -102.049164 62.441014 60.277181 -77.540061
0.7067 58.3893 2.2709 -120.751713 71.651613 -122.709702 19.087458 16.015456 -123.914887 11.891356 -4.376707 129.128465 -0.239448 15.018506 -1.347491 10.242786 -25.240771 21.382512 45.611152 3.405641 8.08842 14.43442 -3.07815 -23.957907 -1.823854 16.998983 10.106563 -12.045643 -78.157561 -86.03004 -130.714077 72.747971 -121.358499 -3.683588 -40.466016 -6.19895 176.543632 -18.107 82.152302 47.312955 -61.973689 64.477421 -85.253161 40.263617 77.997988 60.136596 -48.419165 6.501935 -6.366514 -15.44473 -13.812276 -159.670333 -38.0333 139.197627 -134.259931 9.19462 159.840352 21.096394 32.866355 31.464903 -84.152478 -65.126704 -88.252571 -18.827173 -54.891053 35.026662 5.172386 36.342614 -3.594998 85.341304 38.955782 -78.836198 -1.117771 1.074264 82.747853 -143.300257 -49.054363 -128.701399 165.582294 6.308826 -66.174738 144.30085 -20.220969 -47.666641 -176.976179 -22.963495 -124.589126 54.418693 61.985338 -45.974221 56.917698 37.002582 -42.509055 -9.734918 19.593363 -9.456923 14.5562 -25.948834 6.279704 -99.226697 -61.362997 -70.737116 122.160856 42.147969 172.542109 -3.621113 -1.19828 19.250474 5.577584 5.750007 -7.736731 -24.258582 -16.963935 62.680245 54.992537 23.857088 -128.108615 -36.415177 -45.81249 29.490252 -165.914006 68.611879 -8.479365 -141.782642 -7.617898 6.842849 99.772621 84.178595 67.116366 -43.141938 4.323778 179.16974
0.8915 52.1302 3.0261 -115.795857 71.548817 -116.663866 11.383757 13.039194 138.25438 -3.990575 4.312857 -127.069172 15.652973 25.621123 87.118763 -39.73939 2.586789 -59.791977 18.351027 -6.089096 -36.451448 17.830116 -3.459164 -21.791986 4.501975 -33.052319 0.605564 -116.721993 -13.865916 -123.332105 22.448257 8.533038 -152.700143 -131.902425 50.656059 101.00638 -175.681567 -14.402522 91.497742 -58.825146 -36.844651 -35.966586 16.886482 9.564156 8.698444 179.741772 1.091053 113.360942 -134.192616 -59.3125 -165.478593 -68.806482 -68.196664 -139.340744 -86.70496 56.156155 89.368131 5.744919 0.647254 9.386923 -135.313691 45.828307 133.276966 -128.181562 -12.25391 172.400429 4.544527 35.660485 -6.030559 103.678522 35.166336 -76.877137 12.200948 -35.337098 75.375835 -115.350005 -53.954948 -102.772566 22.227491 15.230949 -9.682504 -55.440966 64.159247 27.281167 40.046542 47.266919 -56.229974 42.410718 -16.289871 28.434544 1.421998 -12.952201 -3.299525 150.498812 7.499923 -145.254538 101.27711 63.123048 -87.62475 -7.853652 -17.832379 -10.842124 14.296047 5.48563 -2.378215 31.648372 36.91521 -106.693611 11.964171 84.562216 -180.0 89.99476 55.024552 -89.197243 -2.639503 -61.377398 84.39613 89.348601 50.899139 6.512486 52.658845 45.611343 39.467038 -131.304204 -75.518387 24.618978 89.051427 -8.060338 179.018996 6.155675 -13.744768 92.226894
0.8103000000000001 49.7186 2.7503 -130.517922 68.220519 -127.877425 13.456964 10.78275 -2.002618 0.468068 -8.996486 8.919853 -7.983812 30.104839 -61.838415 48.901207 -2.447141 97.231037 -6.450321 0.628179 -11.113099 -29.081507 0.312711 -1.205585 5.438222 -33.243308 -5.721668 97.571361 40.151961 -82.425487 -5.528074 -13.867421 112.665331 -0.150287 -52.669697 -15.959034 -1.675645 4.823565 4.121568 51.168963 1.222306 5.446408 -141.057029 -6.482871 123.033725 -127.236791 24.107835 164.073963 -6.423162 42.482751 12.354742 -7.387139 -50.173311 -3.697031 -28.287677 -42.16769 -19.874269 -157.609797 74.010296 -119.585344 -37.119687 39.221201 36.936078 -74.558181 42.242976 116.539368 155.749781 -3.670958 -170.766696 98.789117 -27.43176 104.369972 -10.228051 29.5555 58.474574 -119.051343 -52.070936 -114.293654 80.957306 40.334664 -39.59772 169.159031 -61.127248 -35.900305 -5.578908 7.042715 3.634811 -89.740333 -46.395951 -54.073704 -1.495651 1.60668 -5.181367 4.696788 -27.046339 -1.129574 148.168984 -3.560662 -172.680874 147.474989 -14.697507 -171.698413 -81.29646 67.741113 58.678871 54.334949 -43.164635 -8.210442 -15.003821 -25.433784 0.0 -10.521943 27.296103 -92.055397 -61.652861 9.130148 -75.158058 104.328956 -23.643758 -174.006741 -11.869819 2.124916 16.113323 127.749193 -64.542183 -180.0 93.932138 20.254357 156.78515 -55.139395 66.287951 140.07583
